# xmcd
#
# Track frame offsets:
#	150
#	17205
#	34331
#	54536
#	74462
#	91136
#	109733
#	126875
#	140689
#	159760
#	195274
#
# Disc length: 4374 seconds
#
# Revision: 1
# Processed by: cddbd v1.5.2PL0 Copyright (c) Steve Scherf et al.
# Submitted via: EasyCDDAExtractor 15.3.0.1
#
DISCID=9111140b
DTITLE=Lu
DYEAR=2005
DGENRE=Latin
TTITLE0=Grita
TTITLE1=Se
TTITLE2=Duele
TTITLE3=Entre Mis Brazos
TTITLE4=Por Besarte
TTITLE5=Mojame Lloviendo
TTITLE6=Todas Las Mañanas
TTITLE7=Sera
TTITLE8=Despierta Soledad
TTITLE9=Una Confusion
TTITLE10=Video Tracks
EXTD=
EXTT0=
EXTT1=
EXTT2=
EXTT3=
EXTT4=
EXTT5=
EXTT6=
EXTT7=
EXTT8=
EXTT9=
EXTT10=
PLAYORDER=
